<svg xmlns="http://www.w3.org/2000/svg" width="1249.332" height="259.977"><switch><g><path fill="#634A9E" d="M365.641 175.578c-26.644 0-45.254-17.455-45.254-42.447v-32.906c0-24.992 18.611-42.446 45.254-42.446 12.733 0 24.248 3.802 35.198 11.624 3.104 2.331 3.675 5.977 1.737 9.098-1.699 2.738-3.975 5.687-7.289 5.687-.964 0-2.432-.235-3.943-1.366-8.049-5.771-16.062-8.371-25.904-8.371-16.996 0-27.982 10.119-27.982 25.775v32.906c0 15.779 10.986 25.973 27.982 25.973 10.07 0 19.136-3.236 28.537-10.19 1.539-1.159 3.065-1.408 4.071-1.408 2.143 0 4.088 1.069 5.329 2.932l1.8 2.321c1.29 1.905 1.637 3.881 1.155 5.702a6.45 6.45 0 01-2.76 3.749c-11.666 9.118-23.727 13.367-37.931 13.367z"/><path fill="#CA2D94" d="M499.689 193.332c-28.149 0-47.061-17.301-47.061-43.049V118.58c0-25.748 18.912-43.047 47.061-43.047 28.147 0 47.061 17.299 47.061 43.047v31.703c0 26.151-18.472 43.049-47.061 43.049zm0-101.128c-18.779 0-29.986 9.858-29.986 26.376v31.703c0 16.643 11.207 26.576 29.986 26.576 18.778 0 29.985-9.934 29.985-26.576V118.58c0-16.518-11.207-26.376-29.985-26.376z"/><path fill="#EE4131" d="M647.38 242.106c-15.184 0-28.24-5.409-41.091-17.024-2.404-2.396-2.684-5.981-.86-8.713l.364-.486 2.07-2.445c2.234-2.992 6.655-3.419 9.391-.865 7.373 6.373 16.715 12.862 30.126 12.862 9.256 0 16.216-2.292 20.684-6.812 4.266-4.311 6.382-10.736 6.295-19.107v-5.735c-7.85 2.886-16.41 4.386-25.171 4.386-29.343 0-46.863-16.469-46.863-44.052V94.922c0-3.838 2.81-6.729 6.531-6.729h3.811c3.776 0 6.735 2.956 6.735 6.729v58.991c0 18.3 10.223 27.579 30.39 27.579 8.499 0 16.75-1.818 24.568-5.412V94.922c0-3.838 2.805-6.729 6.529-6.729h4.012c3.726 0 6.531 2.892 6.531 6.729v104.739c-.001 26.578-16.469 42.445-44.052 42.445z"/><path fill="#F68026" d="M795.072 193.332c-28.147 0-47.061-17.301-47.061-43.049V118.58c0-25.748 18.913-43.047 47.061-43.047 28.15 0 47.064 17.299 47.064 43.047v31.703c0 26.151-18.477 43.049-47.064 43.049zm0-101.128c-18.778 0-29.985 9.858-29.985 26.376v31.703c0 16.643 11.207 26.576 29.985 26.576 18.78 0 29.987-9.934 29.987-26.576V118.58c.001-16.518-11.206-26.376-29.987-26.376z"/><path fill="#FFB80E" d="M934.137 175.176c-22.343 0-36.225-14.496-36.225-37.832v-96.91c0-3.725 2.806-6.533 6.53-6.533h3.812c3.204 0 5.785 2.06 6.575 5.249l.156 1.284v19.551h28.585c3.537 0 6.53 2.989 6.53 6.529v3.414c0 3.711-2.931 6.729-6.53 6.729h-28.585v60.485c0 14.174 6.443 21.359 19.153 21.359 2.854 0 7.723-.198 11.513-.572l.527-.028c3.723 0 6.53 2.81 6.53 6.528v3.41c0 3.243-2.004 5.765-5.236 6.572l-.735.131c-3.896.41-9.399.634-12.6.634z"/><path fill="#8DC53E" d="M1013.744 191.324h-4.012c-3.724 0-6.53-2.809-6.53-6.53V84.27c0-3.839 2.806-6.73 6.53-6.73h4.012c3.724 0 6.529 2.892 6.529 6.73v100.524c0 3.722-2.805 6.53-6.529 6.53zm-2.005-125.804c-6.013 0-10.545-4.446-10.545-10.34 0-6.016 4.533-10.546 10.545-10.546 6.01 0 10.542 4.53 10.542 10.546.001 5.893-4.532 10.34-10.542 10.34z"/><path fill="#02B0AF" d="M1113.655 198.428h-1.928a6.8 6.8 0 01-6.458-4.639l-39.177-100.137a6.374 6.374 0 01.404-5.953 6.426 6.426 0 015.505-3.059h4.213c2.896 0 5.185 1.984 6.169 3.949l.198.455 31.741 81.687 31.765-82.142c.981-1.963 3.485-3.949 6.369-3.949h4.215c1.97 0 3.791.885 4.998 2.432 1.245 1.598 1.685 3.766 1.175 5.797l-.208.646-39.536 101.061-.319.48c-1.411 2.111-3.665 3.371-6.038 3.371h-3.088z"/><g><path fill="#0458C6" d="M112.34 74.431h-5.417c-2.164 0-4.261-1.037-5.479-2.646l-30.68-33.613-30.705 33.639c-1.337 1.727-3.647 2.62-5.456 2.62h-5.419c-2.486 0-4.568-1.153-5.562-3.093-1.006-1.956-.646-4.254.97-6.145l38.655-41.912c1.307-1.622 3.319-2.541 5.58-2.541h3.868c2.261 0 4.271.919 5.58 2.541l38.535 41.772c1.738 2.036 2.098 4.333 1.092 6.288-.999 1.936-3.076 3.09-5.562 3.09z"/></g><g><path fill="#0458C6" d="M254.991 74.431h-5.619c-2.247 0-4.425-1.037-5.684-2.646l-31.834-33.613-31.858 33.639c-1.388 1.727-3.784 2.62-5.663 2.62h-5.619c-2.58 0-4.739-1.153-5.773-3.093-1.043-1.956-.669-4.254 1.009-6.145l40.109-41.912c1.356-1.622 3.441-2.541 5.788-2.541h4.012c2.344 0 4.432.919 5.788 2.541l39.983 41.772c1.803 2.036 2.177 4.333 1.134 6.288-1.037 1.936-3.194 3.09-5.773 3.09z"/></g><g><path fill="#02B0AF" d="M1194.963 44.877c3.416 0 6.591.85 9.528 2.55 2.936 1.699 5.258 4.021 6.966 6.966a18.643 18.643 0 012.562 9.515c0 3.416-.842 6.583-2.524 9.503-1.683 2.919-4.005 5.232-6.966 6.94a18.839 18.839 0 01-9.566 2.562c-3.432 0-6.612-.837-9.54-2.512-2.928-1.674-5.25-3.987-6.966-6.94s-2.575-6.137-2.575-9.553c0-3.415.846-6.587 2.537-9.515s4.017-5.246 6.979-6.954a18.823 18.823 0 019.565-2.562zm0 3.155c-4.442 0-8.199 1.535-11.269 4.605-3.071 3.071-4.606 6.827-4.606 11.27 0 4.459 1.531 8.215 4.593 11.27 3.062 3.054 6.823 4.58 11.282 4.58 4.442 0 8.194-1.53 11.257-4.593 3.062-3.062 4.593-6.814 4.593-11.257 0-4.425-1.536-8.178-4.606-11.257-3.071-3.079-6.819-4.618-11.244-4.618zm-4.316 26.097h-3.307V53.66h7.092c1.985 0 3.416.102 4.291.303 1.295.303 2.36.926 3.193 1.868.833.942 1.249 2.062 1.249 3.356 0 1.649-.572 3.004-1.716 4.063-1.077 1.01-2.457 1.582-4.14 1.717 1.397.571 2.987 2.296 4.771 5.174l2.473 3.987h-4.038l-1.792-3.205c-1.077-1.918-1.859-3.155-2.347-3.71-1.06-1.194-2.314-1.792-3.761-1.792h-1.968v8.708zm0-17.692v6.158h4.038c3.297 0 4.947-1.034 4.947-3.104 0-1.329-.581-2.212-1.742-2.649-.707-.27-1.859-.404-3.458-.404h-3.785z"/></g></g></switch></svg>